<?xml version="1.0" encoding="UTF-8" standalone="no"?>
<!-- Created with Inkscape (http://www.inkscape.org/) -->

<svg
   width="84.550903mm"
   height="49.282562mm"
   viewBox="0 0 84.550903 49.282562"
   version="1.1"
   id="svg5"
   xml:space="preserve"
   xmlns:inkscape="http://www.inkscape.org/namespaces/inkscape"
   xmlns:sodipodi="http://sodipodi.sourceforge.net/DTD/sodipodi-0.dtd"
   xmlns="http://www.w3.org/2000/svg"
   xmlns:svg="http://www.w3.org/2000/svg"><sodipodi:namedview
     id="namedview7"
     pagecolor="#ffffff"
     bordercolor="#000000"
     borderopacity="0.25"
     inkscape:showpageshadow="2"
     inkscape:pageopacity="0.0"
     inkscape:pagecheckerboard="0"
     inkscape:deskcolor="#d1d1d1"
     inkscape:document-units="mm"
     showgrid="false" /><defs
     id="defs2" /><g
     inkscape:label="Capa 1"
     inkscape:groupmode="layer"
     id="layer1"
     transform="translate(-46.674958,-17.045248)"><path
       style="fill:#add8e6;fill-opacity:1;stroke-width:0.0880159"
       d="m 50.606358,66.163998 c -0.20168,-0.37684 -0.0157,-1.58146 0.4915,-3.18316 0.59462,-1.87782 1.31259,-3.30164 2.99983,-5.94901 1.05821,-1.66036 1.52261,-2.58095 1.52215,-3.01732 -5.3e-4,-0.46739 -0.10994,-0.61599 -2.13406,-2.89761 -0.56193,-0.63342 -0.94617,-1.14137 -0.94617,-1.2508 0,-0.10134 0.0636,-0.31839 0.14144,-0.48232 0.17706,-0.37312 3.08832,-3.17106 4.41717,-4.24523 1.10989,-0.89718 1.55868,-1.10323 1.93854,-0.89001 0.12552,0.0704 0.88349,0.8465 1.6844,1.72456 0.8009,0.87806 1.48427,1.60037 1.51858,1.60512 0.0343,0.005 0.47,-0.30175 0.96818,-0.68112 1.01949,-0.77634 2.12234,-1.52218 3.25883,-2.20387 1.11408,-0.66825 4.13206,-2.11604 5.61239,-2.69237 0.70193,-0.27329 1.38594,-0.54419 1.52004,-0.60201 0.19288,-0.0832 -0.8092,-0.10599 -4.79687,-0.10929 -4.73097,-0.004 -6.85584,-0.0745 -9.30944,-0.30946 -1.34723,-0.12898 -4.46839,-0.58597 -5.36277,-0.78519 -2.97472,-0.6626 -4.66016,-1.727 -6.09006,-3.84602 -1.22212,-1.81109 -1.7782,-3.98877 -1.01855,-3.98877 0.12635,0 0.65719,0.34107 1.35979,0.87367 1.90014,1.44041 3.31243,2.04447 5.4024,2.3107 1.23458,0.15728 10.41846,0.15806 12.53042,10e-4 4.30443,-0.31995 10.52978,-1.00235 12.19723,-1.33701 2.18492,-0.43851 2.93947,-0.71689 8.21529,-3.03084 5.62857,-2.46867 8.48797,-3.55965 10.94245,-4.17497 2.04666,-0.51309 3.138112,-0.65484 4.971532,-0.64567 0.85813,0.004 1.58003,-0.0242 1.60422,-0.0634 0.0747,-0.1209 -0.21925,-0.32316 -1.33102,-0.9158 -1.30878,-0.69765 -1.84486,-1.05772 -3.077742,-2.06724 -2.04576,-1.67514 -4.30668,-3.97437 -4.94922,-5.03308 -0.20146,-0.33195 -0.24294,-0.78837 -0.0965,-1.06198 0.0708,-0.13238 0.18603,-0.17025 0.5179,-0.17025 0.88085,0 2.35706,0.94588 6.300242,4.03685 1.21022,0.94867 2.3943,1.9223 2.6313,2.16363 0.50836,0.51767 0.75271,1.00861 0.75538,1.51772 0.001,0.20288 0.0327,0.38788 0.0703,0.41111 0.0376,0.0232 0.23066,-0.001 0.42906,-0.0541 0.70699,-0.18871 1.3161,0.3117 1.36726,1.12326 l 0.0277,0.43923 0.45126,0.0551 c 0.79262,0.0968 1.9792,0.85512 4.3016,2.74926 2.66912,2.17693 6.25145,5.6215 6.64154,6.38615 0.35988,0.70542 0.007,0.94979 -0.90216,0.62517 -1.70302,-0.60792 -5.89176,-3.14788 -8.32922,-5.05066 -1.25849,-0.98243 -2.50089,-2.23857 -3.12627,-3.16086 -0.65807,-0.97048 -0.76632,-0.9293 -0.79632,0.30298 -0.0455,1.86969 -0.86241,2.92197 -5.12392,6.60034 -2.057442,1.7759 -2.828652,2.49522 -1.700952,1.58651 0.29976,-0.24155 0.77515,-0.56184 1.05642,-0.71176 0.43296,-0.23076 0.60675,-0.27256 1.133182,-0.27256 0.69268,0 0.82331,0.0419 3.27028,1.04897 5.93083,2.4409 12.36682,4.2937 18.26329,5.25764 1.4322,0.23414 3.81007,0.21767 5.14893,-0.0357 1.16098,-0.21967 2.48715,-0.59875 3.41062,-0.9749 0.41683,-0.16979 0.63811,-0.22283 0.63811,-0.15297 0,0.21041 -1.05446,1.70248 -1.66571,2.357 -1.44953,1.55215 -2.81085,2.29618 -4.89147,2.67344 -1.07896,0.19563 -4.40995,0.26566 -6.19064,0.13015 -3.99905,-0.30434 -9.3186,-1.34625 -16.42944,-3.21793 -2.591932,-0.68224 -3.669632,-0.937 -3.725872,-0.88076 -0.0518,0.0518 0.39334,0.25713 2.078192,0.95841 5.64777,2.35076 9.2794,4.51207 13.3978,7.97352 1.52276,1.27986 4.4265,4.18311 5.35448,5.3536 0.93784,1.18291 1.15856,1.60148 0.84449,1.60148 -0.15869,0 -0.56957,-0.27311 -1.9302,-1.28303 -3.97081,-2.94729 -8.05934,-4.91853 -13.02609,-6.28036 -4.57428,-1.25422 -10.581332,-1.90243 -15.564902,-1.67957 -4.47708,0.20021 -7.75143,0.68379 -12.51243,1.84792 -5.92138,1.44787 -8.46797,2.54469 -14.17056,6.10328 -4.25241,2.65362 -7.14992,4.92554 -9.102,7.13682 -1.37435,1.55683 -2.13434,2.34187 -2.40171,2.48089 -0.32933,0.17123 -0.57578,0.1544 -0.6834,-0.0467 z m 10.19618,-13.51066 c 2.72972,-2.04962 4.67227,-3.24673 7.44791,-4.58984 7.86331,-3.80499 16.36414,-5.06265 25.19801,-3.72793 4.06164,0.61368 9.213302,1.90507 11.988622,3.00524 1.4034,0.55633 5.78845,2.73207 6.68588,3.31735 0.11915,0.0777 0.18869,0.0959 0.15454,0.0405 -0.22404,-0.36363 -3.49031,-2.30229 -5.43209,-3.22416 -5.04312,-2.39424 -9.930272,-3.7264 -15.798852,-4.30653 -1.78201,-0.17616 -6.78645,-0.14845 -8.58155,0.0475 -7.09898,0.77497 -13.3395,2.93969 -18.57135,6.44205 -1.94215,1.30014 -3.07684,2.23655 -4.88488,4.03128 l -1.58429,1.57263 0.88016,-0.69671 c 0.48409,-0.38319 1.60814,-1.24332 2.49789,-1.91139 z m 36.7572,-15.27632 c 0.0876,-0.0968 0.1395,-0.17603 0.1153,-0.17603 -0.0242,0 -0.1157,0.0792 -0.20332,0.17603 -0.0876,0.0968 -0.1395,0.17603 -0.1153,0.17603 0.0242,0 0.1157,-0.0792 0.20332,-0.17603 z m -21.25584,28.59353 c -1.65348,-0.27008 -2.64479,-1.02907 -3.16701,-2.42482 -0.39551,-1.0571 -0.47186,-1.64359 -0.47347,-3.63664 -10e-4,-1.76504 0.0139,-1.94938 0.2275,-2.74014 0.82638,-3.05918 3.01498,-5.00666 6.26307,-5.57308 0.99009,-0.17266 1.54465,-0.17252 1.97705,5.2e-4 0.54193,0.21684 0.69045,0.8125 0.40637,1.62985 -0.22794,0.65583 -0.28244,0.69426 -0.83081,0.58583 -0.99987,-0.19769 -2.31755,0.21883 -3.06878,0.97007 -1.045,1.045 -1.5334,3.29173 -1.25926,5.79292 0.29245,2.66831 1.0691,3.26185 3.66602,2.80167 1.23524,-0.21888 1.20354,-0.22389 1.43026,0.2257 0.28198,0.55919 0.27184,1.22237 -0.0241,1.57404 -0.50512,0.6003 -1.67116,0.89206 -3.51859,0.8804 -0.62931,-0.004 -1.36204,-0.0428 -1.62829,-0.0863 z m -12.14619,-4.31781 v -4.3512 l 0.24263,-0.23245 c 0.48887,-0.46836 5.92232,-2.85677 7.26072,-3.19163 l 0.24205,-0.0606 v 0.74792 c 0,0.58366 -0.0338,0.78828 -0.15403,0.93163 -0.10168,0.12127 -0.842,0.41757 -2.17839,0.87189 l -2.02437,0.68818 -0.0247,1.13309 c -0.0136,0.62319 0.007,1.16439 0.0448,1.20265 0.0383,0.0383 0.78213,-0.10621 1.65304,-0.32105 0.87091,-0.21484 1.67259,-0.41202 1.78151,-0.43817 0.19365,-0.0465 0.19803,-0.0309 0.19803,0.70626 0,1.07498 0.007,1.07017 -2.00236,1.44459 l -1.60629,0.29937 v 1.65808 1.65809 l 0.46208,-0.0456 c 0.59529,-0.0588 3.27604,-0.21962 3.6637,-0.21981 l 0.29709,-1.8e-4 -0.0394,0.75139 c -0.0258,0.4918 -0.0828,0.79304 -0.16507,0.87195 -0.10015,0.0961 -0.88847,0.13335 -3.8883,0.18365 l -3.76268,0.0631 z m 18.91624,4.13141 c -0.004,-0.0605 -0.0566,-3.25879 -0.11698,-7.10729 -0.0794,-5.06094 -0.0832,-7.05815 -0.0138,-7.2173 0.071,-0.16274 0.20729,-0.24758 0.52356,-0.32581 0.50533,-0.125 2.88278,-0.38144 2.97989,-0.32143 0.037,0.0228 0.0673,2.02944 0.0674,4.45912 9e-5,2.42969 0.0262,5.27906 0.058,6.33195 l 0.0578,1.91435 h 2.14237 2.14237 v 1.10238 c 0,1.10234 0,1.10238 -0.22577,1.18821 -0.36033,0.137 -7.6058,0.11399 -7.61482,-0.0242 z m 9.16083,-5.27576 c 0,-6.46691 0.0685,-9.34086 0.22766,-9.5574 0.099,-0.13463 0.29881,-0.1508 1.7896,-0.14483 0.923,0.004 1.69312,0.0235 1.7114,0.044 0.0183,0.0205 -0.003,3.34449 -0.0471,7.38662 -0.0652,5.97209 -0.10257,7.3717 -0.19916,7.46872 -0.0882,0.0886 -0.5533,0.1317 -1.80066,0.16701 l -1.68178,0.0476 z m 5.41985,0.91897 c 0.0332,-2.45674 0.0848,-5.71024 0.11475,-7.23 l 0.0544,-2.76319 0.22004,-0.1625 c 0.2141,-0.15811 0.24975,-0.15789 1.32024,0.008 1.990552,0.30842 4.767112,0.88953 6.147682,1.28665 l 0.47066,0.13538 -0.0306,0.7829 c -0.0181,0.46408 -0.0748,0.82704 -0.13909,0.89131 -0.086,0.0859 -0.5489,0.0208 -2.22753,-0.3133 -1.16545,-0.23195 -2.13518,-0.40555 -2.15494,-0.38579 -0.0198,0.0198 -0.0631,0.79307 -0.0963,1.71845 l -0.0604,1.68251 0.38751,0.0532 c 1.92424,0.26442 3.3548,0.47907 3.3834,0.50768 0.019,0.019 0.01,0.38237 -0.02,0.80743 -0.0374,0.53045 -0.10135,0.83066 -0.20378,0.95716 l -0.14925,0.18431 -1.64107,-0.16242 c -0.90259,-0.0893 -1.67089,-0.1326 -1.70733,-0.0961 -0.0364,0.0364 -0.0914,1.45705 -0.12214,3.1569 -0.0553,3.05764 -0.058,3.09235 -0.25199,3.24945 -0.17273,0.13986 -0.38438,0.1588 -1.775372,0.1588 h -1.57927 l 0.0603,-4.46681 z m 12.212972,2.72849 c 0.0309,-0.95607 0.078,-3.06515 0.10454,-4.68684 0.0266,-1.62169 0.0663,-3.09179 0.0882,-3.26687 l 0.04,-0.31834 -0.90133,-0.26486 c -0.49573,-0.14567 -1.34691,-0.37833 -1.8915,-0.51703 l -0.99018,-0.25216 0.007,-0.52889 c 0.004,-0.29088 0.0333,-0.70711 0.066,-0.92495 0.052,-0.3459 0.0893,-0.39952 0.29485,-0.42328 0.12946,-0.015 0.98101,0.21763 1.89235,0.51687 2.66022,0.87349 4.9712,1.81358 7.44402,3.02817 l 1.21022,0.59442 v 0.65037 c 0,0.46046 -0.0321,0.65098 -0.11002,0.6525 -0.0605,0.001 -0.87249,-0.30244 -1.8044,-0.67472 -0.9319,-0.37228 -1.71402,-0.65722 -1.73803,-0.63321 -0.024,0.024 -0.0827,1.97848 -0.13046,4.34327 -0.0666,3.29756 -0.1128,4.31611 -0.19832,4.37039 -0.0613,0.0389 -0.86013,0.0714 -1.77511,0.0721 l -1.6636,0.001 z"
       id="path310"
       inkscape:export-filename="path310.svg"
       inkscape:export-xdpi="96"
       inkscape:export-ydpi="96" /></g></svg>
